<mxfile host="app.diagrams.net" modified="2023-09-12T18:42:47.408Z" agent="Mozilla/5.0 (Windows NT 10.0; Win64; x64) AppleWebKit/537.36 (KHTML, like Gecko) Chrome/116.0.0.0 Safari/537.36" etag="kG2_DM6-85hXRilF7pzH" version="21.7.4" type="device">
  <diagram name="Página-1" id="aLZlGRxMG-S9Xb0rPUj8">
    <mxGraphModel dx="880" dy="470" grid="1" gridSize="10" guides="1" tooltips="1" connect="1" arrows="1" fold="1" page="1" pageScale="1" pageWidth="827" pageHeight="1169" math="0" shadow="0">
      <root>
        <mxCell id="0" />
        <mxCell id="1" parent="0" />
        <mxCell id="0FxwA9b0YcUAkixYtYMO-2" style="edgeStyle=orthogonalEdgeStyle;rounded=0;orthogonalLoop=1;jettySize=auto;html=1;fillColor=#f8cecc;strokeColor=#b85450;" edge="1" parent="1" source="0FxwA9b0YcUAkixYtYMO-1">
          <mxGeometry relative="1" as="geometry">
            <mxPoint x="200" y="120" as="targetPoint" />
            <Array as="points">
              <mxPoint x="200" y="60" />
            </Array>
          </mxGeometry>
        </mxCell>
        <mxCell id="0FxwA9b0YcUAkixYtYMO-1" value="" style="ellipse;html=1;shape=endState;fillColor=#000000;strokeColor=#ff0000;" vertex="1" parent="1">
          <mxGeometry x="40" y="40" width="40" height="40" as="geometry" />
        </mxCell>
        <mxCell id="0FxwA9b0YcUAkixYtYMO-3" value="selecionar área de empréstimo" style="rounded=1;whiteSpace=wrap;html=1;arcSize=40;fontColor=#000000;fillColor=#ffffc0;strokeColor=#ff0000;" vertex="1" parent="1">
          <mxGeometry x="140" y="120" width="120" height="40" as="geometry" />
        </mxCell>
        <mxCell id="0FxwA9b0YcUAkixYtYMO-4" value="" style="edgeStyle=orthogonalEdgeStyle;html=1;verticalAlign=bottom;endArrow=open;endSize=8;strokeColor=#ff0000;rounded=0;entryX=0.5;entryY=0;entryDx=0;entryDy=0;" edge="1" source="0FxwA9b0YcUAkixYtYMO-3" parent="1" target="0FxwA9b0YcUAkixYtYMO-5">
          <mxGeometry relative="1" as="geometry">
            <mxPoint x="200" y="220" as="targetPoint" />
          </mxGeometry>
        </mxCell>
        <mxCell id="0FxwA9b0YcUAkixYtYMO-5" value="selecionar leitor e livro" style="rounded=1;whiteSpace=wrap;html=1;arcSize=40;fontColor=#000000;fillColor=#ffffc0;strokeColor=#ff0000;" vertex="1" parent="1">
          <mxGeometry x="140" y="230" width="120" height="40" as="geometry" />
        </mxCell>
        <mxCell id="0FxwA9b0YcUAkixYtYMO-6" value="" style="edgeStyle=orthogonalEdgeStyle;html=1;verticalAlign=bottom;endArrow=open;endSize=8;strokeColor=#ff0000;rounded=0;entryX=0.5;entryY=0;entryDx=0;entryDy=0;" edge="1" source="0FxwA9b0YcUAkixYtYMO-5" parent="1" target="0FxwA9b0YcUAkixYtYMO-7">
          <mxGeometry relative="1" as="geometry">
            <mxPoint x="200" y="330" as="targetPoint" />
          </mxGeometry>
        </mxCell>
        <mxCell id="0FxwA9b0YcUAkixYtYMO-7" value="leitor existe?" style="rhombus;whiteSpace=wrap;html=1;fontColor=#000000;fillColor=#ffffc0;strokeColor=#ff0000;" vertex="1" parent="1">
          <mxGeometry x="147.5" y="340" width="105" height="50" as="geometry" />
        </mxCell>
        <mxCell id="0FxwA9b0YcUAkixYtYMO-8" value="no" style="edgeStyle=orthogonalEdgeStyle;html=1;align=left;verticalAlign=bottom;endArrow=open;endSize=8;strokeColor=#ff0000;rounded=0;exitX=1;exitY=0.5;exitDx=0;exitDy=0;entryX=0;entryY=0.5;entryDx=0;entryDy=0;" edge="1" source="0FxwA9b0YcUAkixYtYMO-7" parent="1" target="0FxwA9b0YcUAkixYtYMO-13">
          <mxGeometry x="-1" relative="1" as="geometry">
            <mxPoint x="358" y="364.5" as="targetPoint" />
            <mxPoint x="260" y="364.5" as="sourcePoint" />
            <Array as="points" />
          </mxGeometry>
        </mxCell>
        <mxCell id="0FxwA9b0YcUAkixYtYMO-9" value="yes" style="edgeStyle=orthogonalEdgeStyle;html=1;align=left;verticalAlign=top;endArrow=open;endSize=8;strokeColor=#ff0000;rounded=0;entryX=0.5;entryY=0;entryDx=0;entryDy=0;entryPerimeter=0;" edge="1" source="0FxwA9b0YcUAkixYtYMO-7" parent="1" target="0FxwA9b0YcUAkixYtYMO-20">
          <mxGeometry x="-1" relative="1" as="geometry">
            <mxPoint x="200" y="440" as="targetPoint" />
          </mxGeometry>
        </mxCell>
        <mxCell id="0FxwA9b0YcUAkixYtYMO-13" value="registrar leitor?" style="rhombus;whiteSpace=wrap;html=1;fontColor=#000000;fillColor=#ffffc0;strokeColor=#ff0000;" vertex="1" parent="1">
          <mxGeometry x="361" y="340" width="105" height="50" as="geometry" />
        </mxCell>
        <mxCell id="0FxwA9b0YcUAkixYtYMO-20" value="livro existe?" style="rhombus;whiteSpace=wrap;html=1;fontColor=#000000;fillColor=#ffffc0;strokeColor=#ff0000;" vertex="1" parent="1">
          <mxGeometry x="147.5" y="450" width="105" height="50" as="geometry" />
        </mxCell>
        <mxCell id="0FxwA9b0YcUAkixYtYMO-21" value="" style="ellipse;html=1;shape=endState;fillColor=#000000;strokeColor=#ff0000;" vertex="1" parent="1">
          <mxGeometry x="590" y="40" width="40" height="40" as="geometry" />
        </mxCell>
        <mxCell id="0FxwA9b0YcUAkixYtYMO-26" style="edgeStyle=orthogonalEdgeStyle;rounded=0;orthogonalLoop=1;jettySize=auto;html=1;fillColor=#f8cecc;strokeColor=#b85450;" edge="1" parent="1" source="0FxwA9b0YcUAkixYtYMO-22" target="0FxwA9b0YcUAkixYtYMO-5">
          <mxGeometry relative="1" as="geometry" />
        </mxCell>
        <mxCell id="0FxwA9b0YcUAkixYtYMO-22" value="registrar leitor" style="rounded=1;whiteSpace=wrap;html=1;arcSize=40;fontColor=#000000;fillColor=#ffffc0;strokeColor=#ff0000;" vertex="1" parent="1">
          <mxGeometry x="360" y="230" width="114" height="40" as="geometry" />
        </mxCell>
        <mxCell id="0FxwA9b0YcUAkixYtYMO-24" value="yes" style="edgeStyle=orthogonalEdgeStyle;html=1;align=left;verticalAlign=top;endArrow=open;endSize=8;strokeColor=#ff0000;rounded=0;entryX=0.5;entryY=1;entryDx=0;entryDy=0;exitX=0.5;exitY=0;exitDx=0;exitDy=0;" edge="1" parent="1" source="0FxwA9b0YcUAkixYtYMO-13" target="0FxwA9b0YcUAkixYtYMO-22">
          <mxGeometry x="0.4326" y="-6" relative="1" as="geometry">
            <mxPoint x="361" y="380" as="targetPoint" />
            <mxPoint x="361" y="320" as="sourcePoint" />
            <mxPoint as="offset" />
          </mxGeometry>
        </mxCell>
        <mxCell id="0FxwA9b0YcUAkixYtYMO-25" value="no" style="edgeStyle=orthogonalEdgeStyle;html=1;align=left;verticalAlign=bottom;endArrow=open;endSize=8;strokeColor=#ff0000;rounded=0;exitX=1;exitY=0.5;exitDx=0;exitDy=0;entryX=0.5;entryY=1;entryDx=0;entryDy=0;" edge="1" parent="1" source="0FxwA9b0YcUAkixYtYMO-13" target="0FxwA9b0YcUAkixYtYMO-21">
          <mxGeometry x="-1" relative="1" as="geometry">
            <mxPoint x="620" y="365" as="targetPoint" />
            <mxPoint x="482" y="364.5" as="sourcePoint" />
            <Array as="points" />
          </mxGeometry>
        </mxCell>
        <mxCell id="0FxwA9b0YcUAkixYtYMO-35" style="edgeStyle=orthogonalEdgeStyle;rounded=0;orthogonalLoop=1;jettySize=auto;html=1;entryX=1;entryY=0.5;entryDx=0;entryDy=0;fillColor=#f8cecc;strokeColor=#b85450;" edge="1" parent="1" source="0FxwA9b0YcUAkixYtYMO-27" target="0FxwA9b0YcUAkixYtYMO-21">
          <mxGeometry relative="1" as="geometry">
            <mxPoint x="680" y="60" as="targetPoint" />
            <Array as="points">
              <mxPoint x="670" y="60" />
            </Array>
          </mxGeometry>
        </mxCell>
        <mxCell id="0FxwA9b0YcUAkixYtYMO-27" value="registrar empréstimo" style="rounded=1;whiteSpace=wrap;html=1;arcSize=40;fontColor=#000000;fillColor=#ffffc0;strokeColor=#ff0000;" vertex="1" parent="1">
          <mxGeometry x="610" y="455" width="120" height="40" as="geometry" />
        </mxCell>
        <mxCell id="0FxwA9b0YcUAkixYtYMO-29" value="no" style="edgeStyle=orthogonalEdgeStyle;html=1;align=left;verticalAlign=bottom;endArrow=open;endSize=8;strokeColor=#ff0000;rounded=0;exitX=0;exitY=0.5;exitDx=0;exitDy=0;entryX=0;entryY=0.5;entryDx=0;entryDy=0;" edge="1" parent="1" source="0FxwA9b0YcUAkixYtYMO-20" target="0FxwA9b0YcUAkixYtYMO-5">
          <mxGeometry x="-0.8336" y="-5" relative="1" as="geometry">
            <mxPoint x="90" y="310" as="targetPoint" />
            <mxPoint x="40" y="430" as="sourcePoint" />
            <Array as="points">
              <mxPoint x="91" y="475" />
              <mxPoint x="91" y="250" />
            </Array>
            <mxPoint as="offset" />
          </mxGeometry>
        </mxCell>
        <mxCell id="0FxwA9b0YcUAkixYtYMO-34" value="yes" style="edgeStyle=orthogonalEdgeStyle;html=1;align=left;verticalAlign=top;endArrow=open;endSize=8;strokeColor=#ff0000;rounded=0;entryX=0;entryY=0.5;entryDx=0;entryDy=0;exitX=1;exitY=0.5;exitDx=0;exitDy=0;" edge="1" parent="1" source="0FxwA9b0YcUAkixYtYMO-20" target="0FxwA9b0YcUAkixYtYMO-27">
          <mxGeometry x="-1" relative="1" as="geometry">
            <mxPoint x="330" y="500" as="targetPoint" />
            <mxPoint x="330" y="440" as="sourcePoint" />
          </mxGeometry>
        </mxCell>
      </root>
    </mxGraphModel>
  </diagram>
</mxfile>
